<?xml version="1.0" encoding="utf-8"?>
<!-- Generator: Adobe Illustrator 17.0.0, SVG Export Plug-In . SVG Version: 6.00 Build 0)  -->
<!DOCTYPE svg PUBLIC "-//W3C//DTD SVG 1.1//EN" "http://www.w3.org/Graphics/SVG/1.1/DTD/svg11.dtd">
<svg version="1.1" id="Layer_1" xmlns="http://www.w3.org/2000/svg" xmlns:xlink="http://www.w3.org/1999/xlink" x="0px" y="0px"
	 width="200px" height="100px" viewBox="0 0 200 100" enable-background="new 0 0 200 100" xml:space="preserve">
<g>
	<path fill="#A00707" d="M3.478,16.09c0.661,0,1.222-0.377,1.686-1.133c0.462-0.754,0.694-1.671,0.694-2.75h5.751V78.54H5.857
		c0-1.078-0.231-2.009-0.694-2.791c-0.463-0.781-1.025-1.173-1.686-1.173V16.09z"/>
	<path fill="#A00707" d="M11.112,12.207h13.634V78.54H11.112V12.207z"/>
	<path fill="#A00707" d="M24.25,12.207h13.634V78.54H24.25V12.207z"/>
	<path fill="#A00707" d="M37.389,12.207h13.634V78.54H37.389V12.207z"/>
	<path fill="#A00707" d="M50.527,12.207h13.634V78.54H50.527V12.207z"/>
	<path fill="#A00707" d="M63.665,12.207h13.634V78.54H63.665V12.207z"/>
	<path fill="#A00707" d="M76.803,12.207h13.634V78.54H76.803V12.207z"/>
	<path fill="#A00707" d="M89.941,12.207h13.634V78.54H89.941V12.207z"/>
	<path fill="#A00707" d="M103.08,12.207h13.634V78.54H103.08V12.207z"/>
	<path fill="#A00707" d="M116.219,12.207h13.634V78.54h-13.634V12.207z"/>
	<path fill="#A00707" d="M129.357,12.207h13.634V78.54h-13.634V12.207z"/>
	<path fill="#A00707" d="M142.496,12.207h13.634V78.54h-13.634V12.207z"/>
	<path fill="#A00707" d="M155.635,12.207h13.634V78.54h-13.634V12.207z"/>
	<path fill="#A00707" d="M155.636,78.54h0.693c-2.147,1.563-4.594,3.641-7.337,6.229C150.776,82.504,152.991,80.427,155.636,78.54z
		 M149.735,78.54h0.248l-0.991,0.809L149.735,78.54z M157.768,78.54h0.991c-2.644,1.726-5.883,4.341-9.717,7.847
		C151.157,83.582,154.066,80.967,157.768,78.54z M153.652,78.54h0.446c-1.884,1.509-3.569,2.993-5.057,4.449
		C150.199,81.371,151.735,79.888,153.652,78.54z M151.669,78.54h0.396c-0.693,0.647-1.701,1.618-3.023,2.912
		C150.033,80.049,150.909,79.078,151.669,78.54z M160.048,78.54h1.438c-3.437,1.994-7.552,5.149-12.345,9.465
		C151.752,84.931,155.388,81.775,160.048,78.54z M162.576,78.54h1.934c-4.462,2.318-9.552,6.013-15.27,11.082
		C152.38,85.901,156.825,82.207,162.576,78.54z M165.402,78.54h2.677c-5.883,2.479-12.146,6.74-18.79,12.781
		C153.354,86.575,158.727,82.314,165.402,78.54z M168.525,78.54V12.207h3.57V78.54c-7.536,2.642-15.104,7.442-22.707,14.399
		C154.215,87.168,160.593,82.368,168.525,78.54z M173.583,45.616h22.607l-9.122,24.106l9.122,25.481h-46.455
		c3.339-3.397,7.132-6.418,11.379-9.061s8.403-4.558,12.469-5.743V45.616z"/>
</g>
</svg>
